<mxfile host="app.diagrams.net" modified="2021-03-16T00:39:43.056Z" agent="5.0 (Windows NT 10.0; Win64; x64) AppleWebKit/537.36 (KHTML, like Gecko) Chrome/89.0.4389.82 Safari/537.36" etag="nIMkzgRlqXo5iDMYewmx" version="14.4.8" type="github" pages="5">
  <diagram name="Index" id="2cc2dc42-3aac-f2a9-1cec-7a8b7cbee084">
    <mxGraphModel dx="862" dy="450" grid="1" gridSize="10" guides="1" tooltips="1" connect="1" arrows="1" fold="1" page="1" pageScale="1" pageWidth="1100" pageHeight="850" background="#ffffff" math="0" shadow="0">
      <root>
        <mxCell id="0" />
        <mxCell id="1" parent="0" />
        <mxCell id="7026571954dc6520-36" value="Lorem ipsum dolor sit amet, consectetur adipisicing elit, sed do eiusmod tempor incididunt ut labore et dolore magna aliqua. Ut enim ad minim veniam, quis nostrud exercitation ullamco laboris nisi ut aliquip ex ea commodo consequat. Duis aute irure dolor in reprehenderit in voluptate velit esse cillum dolore eu fugiat nulla pariatur. Excepteur sint occaecat cupidatat non proident, sunt in culpa qui officia deserunt mollit anim id est laborum.&lt;br&gt;Sed ut perspiciatis unde omnis iste natus error sit voluptatem accusantium doloremque laudantium, totam rem aperiam, eaque ipsa quae ab illo inventore veritatis et quasi architecto beatae vitae dicta sunt explicabo.&amp;nbsp;" style="text;spacingTop=-5;whiteSpace=wrap;html=1;align=left;fontSize=12;fontFamily=Helvetica;fillColor=none;strokeColor=none;rounded=0;shadow=1;labelBackgroundColor=none;" parent="1" vertex="1">
          <mxGeometry x="300" y="705" width="490" height="125" as="geometry" />
        </mxCell>
      </root>
    </mxGraphModel>
  </diagram>
  <diagram id="5UvZEncgElDuq21PUjyn" name="Education">
    <mxGraphModel dx="862" dy="450" grid="1" gridSize="10" guides="1" tooltips="1" connect="1" arrows="1" fold="1" page="1" pageScale="1" pageWidth="850" pageHeight="1100" math="0" shadow="0">
      <root>
        <mxCell id="xQHlbi_a2PhiVHi3JHMO-0" />
        <mxCell id="xQHlbi_a2PhiVHi3JHMO-1" parent="xQHlbi_a2PhiVHi3JHMO-0" />
      </root>
    </mxGraphModel>
  </diagram>
  <diagram id="jx8TcTfkRs-R8R8HZvo7" name="Employment">
    <mxGraphModel dx="862" dy="450" grid="1" gridSize="10" guides="1" tooltips="1" connect="1" arrows="1" fold="1" page="1" pageScale="1" pageWidth="850" pageHeight="1100" math="0" shadow="0">
      <root>
        <mxCell id="KdQj3Ux7SMA3sAh3NEJ9-0" />
        <mxCell id="KdQj3Ux7SMA3sAh3NEJ9-1" parent="KdQj3Ux7SMA3sAh3NEJ9-0" />
      </root>
    </mxGraphModel>
  </diagram>
  <diagram id="GrVgXjmRk1ejDHbxJKTp" name="Projects">
    <mxGraphModel dx="862" dy="450" grid="1" gridSize="10" guides="1" tooltips="1" connect="1" arrows="1" fold="1" page="1" pageScale="1" pageWidth="850" pageHeight="1100" math="0" shadow="0">
      <root>
        <mxCell id="hYTSO7b3U-_XPURlNH3s-0" />
        <mxCell id="hYTSO7b3U-_XPURlNH3s-1" parent="hYTSO7b3U-_XPURlNH3s-0" />
      </root>
    </mxGraphModel>
  </diagram>
  <diagram id="nmVz9IYJdSEcc9k1rmN6" name="Contact Me">
    <mxGraphModel dx="862" dy="450" grid="1" gridSize="10" guides="1" tooltips="1" connect="1" arrows="1" fold="1" page="1" pageScale="1" pageWidth="850" pageHeight="1100" math="0" shadow="0">
      <root>
        <mxCell id="d62yAR8ZY1gXt2WncbH--0" />
        <mxCell id="d62yAR8ZY1gXt2WncbH--1" parent="d62yAR8ZY1gXt2WncbH--0" />
        <mxCell id="v_zBLbCRHNknnMty3d15-0" value="Button 2" style="strokeWidth=1;shadow=0;dashed=0;align=center;html=1;shape=mxgraph.mockup.buttons.button;strokeColor=#666666;mainText=;buttonStyle=round;fontSize=17;fontStyle=0;fillColor=none;whiteSpace=wrap;rounded=0;labelBackgroundColor=none;" vertex="1" parent="d62yAR8ZY1gXt2WncbH--1">
          <mxGeometry x="570" y="390" width="190" height="30" as="geometry" />
        </mxCell>
        <mxCell id="zOYbhCbpBV94npywNQHA-0" value="" style="strokeWidth=1;shadow=0;dashed=0;align=center;html=1;shape=mxgraph.mockup.containers.browserWindow;rSize=0;strokeColor=#666666;mainText=,;recursiveResize=0;rounded=0;labelBackgroundColor=none;fontFamily=Verdana;fontSize=12" vertex="1" parent="d62yAR8ZY1gXt2WncbH--1">
          <mxGeometry x="40" y="110" width="1050" height="820" as="geometry" />
        </mxCell>
        <mxCell id="zOYbhCbpBV94npywNQHA-1" value="" style="verticalLabelPosition=bottom;shadow=0;dashed=0;align=center;html=1;verticalAlign=top;strokeWidth=1;shape=mxgraph.mockup.graphics.simpleIcon;strokeColor=#999999;fillColor=#ffffff;rounded=0;labelBackgroundColor=none;fontFamily=Verdana;fontSize=12;fontColor=#000000;" vertex="1" parent="zOYbhCbpBV94npywNQHA-0">
          <mxGeometry x="103" y="380" width="195" height="195" as="geometry" />
        </mxCell>
        <mxCell id="zOYbhCbpBV94npywNQHA-2" value="Page 1" style="strokeWidth=1;shadow=0;dashed=0;align=center;html=1;shape=mxgraph.mockup.containers.anchor;fontSize=17;fontColor=#666666;align=left;" vertex="1" parent="zOYbhCbpBV94npywNQHA-0">
          <mxGeometry x="60" y="12" width="110" height="26" as="geometry" />
        </mxCell>
        <mxCell id="zOYbhCbpBV94npywNQHA-3" value="https://www.default.com" style="strokeWidth=1;shadow=0;dashed=0;align=center;html=1;shape=mxgraph.mockup.containers.anchor;rSize=0;fontSize=17;fontColor=#666666;align=left;" vertex="1" parent="zOYbhCbpBV94npywNQHA-0">
          <mxGeometry x="130" y="60" width="250" height="26" as="geometry" />
        </mxCell>
        <mxCell id="zOYbhCbpBV94npywNQHA-4" value="&lt;font style=&quot;font-size: 28px&quot;&gt;Technology Education Professional&lt;/font&gt;" style="text;html=1;points=[];align=center;verticalAlign=middle;spacingTop=-4;fontSize=30;fontFamily=Verdana" vertex="1" parent="zOYbhCbpBV94npywNQHA-0">
          <mxGeometry x="150" y="330" width="540" height="50" as="geometry" />
        </mxCell>
        <mxCell id="zOYbhCbpBV94npywNQHA-5" value="Menu" style="text;html=1;points=[];align=center;verticalAlign=top;spacingTop=-4;fontSize=15;fontFamily=Verdana" vertex="1" parent="zOYbhCbpBV94npywNQHA-0">
          <mxGeometry x="370" y="140" width="390" height="30" as="geometry" />
        </mxCell>
        <mxCell id="zOYbhCbpBV94npywNQHA-6" value="&lt;font style=&quot;font-size: 23px&quot;&gt;Banner Image&lt;br&gt;background: cover;&lt;br&gt;position: ?:&lt;br&gt;&lt;/font&gt;" style="text;html=1;points=[];align=center;verticalAlign=top;spacingTop=-4;fontSize=12;fontFamily=Verdana;whiteSpace=wrap;" vertex="1" parent="zOYbhCbpBV94npywNQHA-0">
          <mxGeometry x="20" y="170" width="760" height="120" as="geometry" />
        </mxCell>
        <mxCell id="zOYbhCbpBV94npywNQHA-7" value="Section 1" style="text;html=1;points=[];align=left;verticalAlign=top;spacingTop=-4;fontSize=15;fontFamily=Verdana" vertex="1" parent="zOYbhCbpBV94npywNQHA-0">
          <mxGeometry x="800" y="140" width="170" height="30" as="geometry" />
        </mxCell>
        <mxCell id="zOYbhCbpBV94npywNQHA-8" value="Some default text to fill some space, and&amp;nbsp;&lt;span&gt;something more so there is more text&lt;/span&gt;" style="text;html=1;points=[];align=left;verticalAlign=top;spacingTop=-4;fontSize=12;fontFamily=Verdana;whiteSpace=wrap;" vertex="1" parent="zOYbhCbpBV94npywNQHA-0">
          <mxGeometry x="800" y="170" width="240" height="40" as="geometry" />
        </mxCell>
        <mxCell id="zOYbhCbpBV94npywNQHA-9" value="" style="verticalLabelPosition=bottom;shadow=0;dashed=0;align=center;html=1;verticalAlign=top;strokeWidth=1;shape=mxgraph.mockup.markup.line;strokeColor=#999999;rounded=0;labelBackgroundColor=none;fillColor=#ffffff;fontFamily=Verdana;fontSize=12;fontColor=#000000;" vertex="1" parent="zOYbhCbpBV94npywNQHA-0">
          <mxGeometry y="310" width="1050" height="20" as="geometry" />
        </mxCell>
        <mxCell id="zOYbhCbpBV94npywNQHA-10" value="Professional Summary&amp;nbsp;&lt;br&gt;Lorem ipsum dolor sit amet, consectetur adipisicing elit, sed do eiusmod tempor incididunt ut labore et dolore magna aliqua. Ut enim ad minim veniam, quis nostrud exercitation ullamco laboris nisi ut aliquip ex ea commodo consequat. Duis aute irure dolor in reprehenderit in voluptate velit esse cillum dolore eu fugiat nulla pariatur. Excepteur sint occaecat cupidatat non proident, sunt in culpa qui officia deserunt mollit anim id est laborum." style="text;spacingTop=-5;whiteSpace=wrap;html=1;align=left;fontSize=12;fontFamily=Helvetica;fillColor=none;strokeColor=none;rounded=0;shadow=1;labelBackgroundColor=none;" vertex="1" parent="zOYbhCbpBV94npywNQHA-0">
          <mxGeometry x="403" y="390" width="290" height="175" as="geometry" />
        </mxCell>
        <mxCell id="zOYbhCbpBV94npywNQHA-12" value="Image of Natosha" style="text;html=1;points=[];align=left;verticalAlign=top;spacingTop=-4;fontSize=12;fontFamily=Verdana;whiteSpace=wrap;" vertex="1" parent="zOYbhCbpBV94npywNQHA-0">
          <mxGeometry x="130" y="380" width="130" height="20" as="geometry" />
        </mxCell>
        <mxCell id="zOYbhCbpBV94npywNQHA-13" value="" style="verticalLabelPosition=bottom;shadow=0;dashed=0;align=center;html=1;verticalAlign=top;strokeWidth=1;shape=mxgraph.mockup.markup.line;strokeColor=#999999;rounded=0;labelBackgroundColor=none;fillColor=#ffffff;fontFamily=Verdana;fontSize=12;fontColor=#000000;" vertex="1" parent="zOYbhCbpBV94npywNQHA-0">
          <mxGeometry y="580" width="1050" height="20" as="geometry" />
        </mxCell>
        <mxCell id="zOYbhCbpBV94npywNQHA-14" value="Education" style="text;html=1;points=[];align=center;verticalAlign=top;spacingTop=-4;fontSize=15;fontFamily=Verdana" vertex="1" parent="zOYbhCbpBV94npywNQHA-0">
          <mxGeometry x="110" y="610" width="170" height="30" as="geometry" />
        </mxCell>
        <mxCell id="zOYbhCbpBV94npywNQHA-15" value="Projects" style="text;html=1;points=[];align=center;verticalAlign=top;spacingTop=-4;fontSize=15;fontFamily=Verdana" vertex="1" parent="zOYbhCbpBV94npywNQHA-0">
          <mxGeometry x="693" y="610" width="170" height="30" as="geometry" />
        </mxCell>
        <mxCell id="zOYbhCbpBV94npywNQHA-17" value="&lt;font style=&quot;font-size: 14px&quot;&gt;Master of Educational Technology&lt;/font&gt;" style="text;html=1;points=[];align=left;verticalAlign=top;spacingTop=-4;fontSize=12;fontFamily=Verdana;whiteSpace=wrap;" vertex="1" parent="zOYbhCbpBV94npywNQHA-0">
          <mxGeometry x="75.5" y="640" width="250" height="30" as="geometry" />
        </mxCell>
        <mxCell id="zOYbhCbpBV94npywNQHA-18" value="Natosha Burgess-Rodriguez (put name in banner?)" style="text;html=1;points=[];align=left;verticalAlign=top;spacingTop=-4;fontSize=15;fontFamily=Verdana" vertex="1" parent="zOYbhCbpBV94npywNQHA-0">
          <mxGeometry x="15" y="120" width="170" height="30" as="geometry" />
        </mxCell>
        <mxCell id="n-vuxVjHxs2pp4vv8hm5-0" value="Employment" style="text;html=1;points=[];align=center;verticalAlign=top;spacingTop=-4;fontSize=15;fontFamily=Verdana" vertex="1" parent="zOYbhCbpBV94npywNQHA-0">
          <mxGeometry x="403" y="610" width="170" height="30" as="geometry" />
        </mxCell>
        <mxCell id="n-vuxVjHxs2pp4vv8hm5-1" value="&lt;font style=&quot;font-size: 14px&quot;&gt;Accessibility Technologist&lt;br&gt;&lt;/font&gt;" style="text;html=1;points=[];align=left;verticalAlign=top;spacingTop=-4;fontSize=12;fontFamily=Verdana;whiteSpace=wrap;" vertex="1" parent="zOYbhCbpBV94npywNQHA-0">
          <mxGeometry x="394.5" y="643.78" width="187" height="22.44" as="geometry" />
        </mxCell>
        <mxCell id="n-vuxVjHxs2pp4vv8hm5-2" value="&lt;font style=&quot;font-size: 14px&quot;&gt;Video Tutorials&lt;/font&gt;" style="text;html=1;points=[];align=center;verticalAlign=top;spacingTop=-4;fontSize=12;fontFamily=Verdana;whiteSpace=wrap;" vertex="1" parent="zOYbhCbpBV94npywNQHA-0">
          <mxGeometry x="681.5" y="641.89" width="193" height="26.22" as="geometry" />
        </mxCell>
      </root>
    </mxGraphModel>
  </diagram>
</mxfile>
